<?xml version="1.0" encoding="iso-8859-1"?>
<!-- Generator: Adobe Illustrator 19.0.0, SVG Export Plug-In . SVG Version: 6.00 Build 0)  -->
<svg version="1.1" id="Capa_1" xmlns="http://www.w3.org/2000/svg" xmlns:xlink="http://www.w3.org/1999/xlink" x="0px" y="0px"
	 viewBox="0 0 512 512" style="enable-background:new 0 0 512 512;" xml:space="preserve">
<g>
	<polygon style="fill:#73553A;" points="194.916,85.976 175.507,13.568 204.481,5.805 223.891,78.212 	"/>
	
		<rect x="109.744" y="52.63" transform="matrix(-0.4999 -0.8661 0.8661 -0.4999 162.2616 228.9559)" style="fill:#73553A;" width="74.98" height="30"/>
	
		<rect x="64.713" y="87.203" transform="matrix(-0.7071 -0.7071 0.7071 -0.7071 102.213 246.741)" style="fill:#73553A;" width="74.991" height="29.997"/>
	
		<rect x="30.149" y="132.242" transform="matrix(-0.8661 -0.4999 0.4999 -0.8661 52.6141 308.5795)" style="fill:#73553A;" width="74.98" height="30"/>
	<polygon style="fill:#73553A;" points="78.212,223.891 5.805,204.481 13.568,175.507 85.976,194.916 	"/>
	<rect y="241" style="fill:#73553A;" width="76" height="30"/>
	<polygon style="fill:#73553A;" points="13.568,336.493 5.805,307.519 78.212,288.109 85.976,317.084 	"/>
	
		<rect x="52.618" y="327.264" transform="matrix(-0.4999 -0.8661 0.8661 -0.4999 -214.4891 605.6552)" style="fill:#73553A;" width="30" height="74.98"/>
	
		<rect x="87.207" y="372.298" transform="matrix(-0.7071 -0.7071 0.7071 -0.7071 -115.293 771.8308)" style="fill:#73553A;" width="29.997" height="74.991"/>
	<rect x="241" style="fill:#73553A;" width="30" height="76"/>
</g>
<g>
	
		<rect x="372.293" y="394.797" transform="matrix(-0.7071 -0.7071 0.7071 -0.7071 409.7833 989.3282)" style="fill:#59422D;" width="74.991" height="29.997"/>
	
		<rect x="406.92" y="349.75" transform="matrix(-0.8661 -0.4999 0.4999 -0.8661 646.9717 902.8132)" style="fill:#59422D;" width="74.98" height="30"/>
	<polygon style="fill:#59422D;" points="498.432,336.493 426.024,317.084 433.788,288.109 506.195,307.519 	"/>
	<rect x="436" y="241" style="fill:#59422D;" width="76" height="30"/>
	<polygon style="fill:#59422D;" points="433.788,223.891 426.024,194.916 498.432,175.507 506.195,204.481 	"/>
	
		<rect x="429.356" y="109.764" transform="matrix(-0.4999 -0.8661 0.8661 -0.4999 538.9522 605.7165)" style="fill:#59422D;" width="30" height="74.98"/>
	
		<rect x="394.8" y="64.713" transform="matrix(-0.7071 -0.7071 0.7071 -0.7071 627.2978 464.252)" style="fill:#59422D;" width="29.997" height="74.991"/>
	
		<rect x="349.762" y="30.132" transform="matrix(-0.8661 -0.4999 0.4999 -0.8661 646.8738 308.5313)" style="fill:#59422D;" width="30" height="74.98"/>
	<polygon style="fill:#59422D;" points="317.084,85.976 288.109,78.212 307.519,5.805 336.493,13.568 	"/>
	<rect x="256" style="fill:#59422D;" width="15" height="76"/>
</g>
<path style="fill:#896748;" d="M256,61C148.599,61,61,148.599,61,256c0,55.8,24,109.2,66,146.1l4.2,3.9h249.598l4.2-3.9
	C427,365.2,451,311.8,451,256C451,148.599,363.401,61,256,61z"/>
<path style="fill:#73553A;" d="M451,256c0,55.8-24,109.2-66,146.1l-4.2,3.9H256V61C363.401,61,451,148.599,451,256z"/>
<path style="fill:#FEDBAB;" d="M316,151c-24.6,0-46.199,11.7-60,30c-13.801-18.3-35.4-30-60-30c-41.4,0-75,33.6-75,75v150
	c0,24.6,6.599,48.6,18.9,69.3l5.4,9l10.499-2.1c18.001-3.9,31.201,1.199,42.001,12.301c7.8,7.5,12.299,17.399,12.9,28.499l0.6,10.8
	l10.199,2.699C232.301,509.5,243.701,511,256,511c12.299,0,23.699-1.5,34.501-4.501L300.7,503.8l0.601-10.801
	c0.601-11.1,5.099-20.999,13.2-28.799c8.099-8.401,19.499-13.2,31.5-13.2c2.999,0,6,0.3,9.901,1.199l10.499,2.1l5.4-9
	c12.601-21,19.2-45,19.2-69.3V226C391,184.6,357.4,151,316,151z"/>
<path style="fill:#FEC478;" d="M391,226v150c0,24.3-6.599,48.3-19.2,69.3l-5.4,9l-10.499-2.1C352,451.3,348.999,451,346,451
	c-12.001,0-23.401,4.799-31.5,13.2c-8.101,7.8-12.599,17.699-13.2,28.799l-0.6,10.801l-10.199,2.699
	C279.699,509.5,268.299,511,256,511V181c13.801-18.3,35.4-30,60-30C357.4,151,391,184.6,391,226z"/>
<rect x="181" y="241" style="fill:#57555C;" width="30" height="30"/>
<rect x="301" y="241" style="fill:#3C3A41;" width="30" height="30"/>
<path style="fill:#57555C;" d="M256,271c-24.901,0-45,20.099-45,45c0,24.899,20.099,45,45,45s45-20.101,45-45
	C301,291.099,280.901,271,256,271z"/>
<path style="fill:#3C3A41;" d="M301,316c0,24.899-20.099,45-45,45v-90C280.901,271,301,291.099,301,316z"/>
<path style="fill:#896748;" d="M241,512H91v-15c0-20.259,7.896-39.097,22.236-53.057c9.712-10.093,22.441-17.168,36.475-20.127
	c27.905-5.947,51.841,2.446,69.346,20.42c12.715,12.349,20.508,29.487,21.621,47.959C241,492.503,241,495.213,241,497V512z"/>
<path style="fill:#73553A;" d="M421,512H271v-15c0-1.787,0-4.497,0.718-7.456c0.718-15.82,8.511-32.959,21.533-45.615
	C306.903,429.896,325.741,422,346,422c5.083,0,10.181,0.586,16.025,1.816c14.238,3.003,27.07,10.093,37.075,20.464
	C413.104,457.903,421,476.741,421,497V512z"/>
<g>
</g>
<g>
</g>
<g>
</g>
<g>
</g>
<g>
</g>
<g>
</g>
<g>
</g>
<g>
</g>
<g>
</g>
<g>
</g>
<g>
</g>
<g>
</g>
<g>
</g>
<g>
</g>
<g>
</g>
</svg>
